<?xml version="1.0" encoding="UTF-8"?>
<svg id="Layer_1" data-name="Layer 1" xmlns="http://www.w3.org/2000/svg" viewBox="0 0 388 210">
  <defs>
    <style>
      .cls-1, .cls-2, .cls-3, .cls-4 {
        stroke-width: 0px;
      }

      .cls-1, .cls-2, .cls-5 {
        fill: #0b1424;
      }

      .cls-2, .cls-3 {
        fill-rule: evenodd;
      }

      .cls-3, .cls-4 {
        fill: #26a9e0;
      }

      .cls-5 {
        font-family: Poppins-Regular, Poppins;
        font-size: 12.28px;
      }
    </style>
  </defs>
  <path class="cls-1" d="m38.58,172.38h-18.39l-3.04,8.8H7.43l16.6-46.23h10.78l16.6,46.23h-9.79l-3.04-8.8Zm-2.51-7.41l-6.68-19.31-6.68,19.31h13.36Z"/>
  <path class="cls-1" d="m66.88,173.84h15.21v7.34h-24.47v-46.16h9.26v38.82Z"/>
  <g>
    <path class="cls-3" d="m124.63,160.59v20.58h4.13v-22.97l-4.13,2.39Zm0-8.55v6.37l4.13-2.39v-6.37l-4.13,2.39Zm0-8.55v6.37l4.13-2.39v-6.37l-4.13,2.39Zm0-8.88v6.71l4.13-2.39v-6.7l-4.13,2.39Zm-22.41,10.61v35.95h4.15v-38.35l-4.15,2.39Z"/>
    <path class="cls-3" d="m167.05,161.44c-1.67-2.11-3.81-3.41-6.41-3.89,2.38-.75,4.28-2.03,5.71-3.83,1.43-1.8,2.14-4.05,2.14-6.73,0-2.29-.58-4.34-1.75-6.14-1.17-1.8-2.88-3.21-5.15-4.23-2.27-1.01-4.96-1.52-8.09-1.52h-18.82v-25.86l-3.04-1.75-.31-.18-10.39-6-9,5.2-3.04,1.75v26.45c-4.08,2.35-8.04,4.76-12.08,7.08v33.28h-.01v6.11h3.05v-37.64l9.04-5.22v42.86h12.97v-39l-3.83-2.2v-29.39l-3.04,1.75v25.88l-2.97-1.71-.1-.05v-26.45l9-5.2v26.82l10.71-6.18v55.74h22.72c3.12,0,5.83-.53,8.12-1.58,2.29-1.06,4.04-2.52,5.25-4.39,1.21-1.87,1.82-4.04,1.82-6.5,0-2.73-.84-5.15-2.51-7.26Zm-23.31-18.88h8.45c2.2,0,3.89.51,5.08,1.52,1.19,1.01,1.79,2.44,1.79,4.29s-.6,3.27-1.79,4.26-2.88,1.48-5.08,1.48h-8.45v-11.55Zm14.56,29.51c-1.25,1.05-3,1.58-5.25,1.58h-9.31v-12.41h9.11c2.25,0,4.03.56,5.35,1.68,1.32,1.13,1.98,2.67,1.98,4.66s-.63,3.43-1.88,4.49Z"/>
  </g>
  <path class="cls-1" d="m205.29,172.38h-18.39l-3.04,8.8h-9.72l16.6-46.23h10.78l16.6,46.23h-9.79l-3.04-8.8Zm-2.51-7.41l-6.68-19.31-6.68,19.31h13.36Z"/>
  <path class="cls-1" d="m231.58,179.99c-2.58-1.1-4.62-2.69-6.12-4.76-1.5-2.07-2.27-4.52-2.31-7.34h9.92c.13,1.9.8,3.4,2.02,4.5,1.21,1.1,2.88,1.65,4.99,1.65s3.86-.52,5.09-1.55c1.23-1.04,1.85-2.39,1.85-4.07,0-1.37-.42-2.49-1.26-3.37-.84-.88-1.88-1.58-3.14-2.08-1.26-.51-2.99-1.07-5.19-1.69-3-.88-5.43-1.75-7.31-2.61-1.87-.86-3.48-2.16-4.83-3.9-1.35-1.74-2.02-4.07-2.02-6.98,0-2.73.68-5.11,2.05-7.14,1.37-2.03,3.28-3.58,5.75-4.66,2.47-1.08,5.29-1.62,8.47-1.62,4.76,0,8.63,1.16,11.61,3.47,2.98,2.31,4.62,5.54,4.93,9.69h-10.18c-.09-1.59-.76-2.9-2.02-3.93-1.26-1.04-2.92-1.55-4.99-1.55-1.81,0-3.25.46-4.33,1.39-1.08.93-1.62,2.27-1.62,4.03,0,1.23.41,2.26,1.22,3.08.82.82,1.83,1.48,3.04,1.98,1.21.51,2.92,1.09,5.13,1.75,3,.88,5.44,1.76,7.34,2.65,1.9.88,3.53,2.21,4.89,3.97,1.37,1.76,2.05,4.08,2.05,6.94,0,2.47-.64,4.76-1.92,6.88-1.28,2.12-3.15,3.8-5.62,5.06-2.47,1.26-5.4,1.88-8.8,1.88-3.22,0-6.12-.55-8.7-1.65Z"/>
  <path class="cls-1" d="m302.9,135.02v46.16h-9.26v-19.64h-19.77v19.64h-9.26v-46.16h9.26v18.98h19.77v-18.98h9.26Z"/>
  <path class="cls-1" d="m321.29,135.02v46.16h-9.26v-46.16h9.26Z"/>
  <path class="cls-1" d="m364.8,189.31l-7.01-8.4c-1.94.48-3.92.73-5.95.73-4.32,0-8.29-1.01-11.9-3.04-3.62-2.03-6.48-4.84-8.6-8.43-2.12-3.59-3.17-7.66-3.17-12.2s1.06-8.54,3.17-12.14c2.12-3.59,4.98-6.4,8.6-8.43,3.61-2.03,7.58-3.04,11.9-3.04s8.34,1.01,11.94,3.04c3.59,2.03,6.44,4.84,8.53,8.43,2.09,3.59,3.14,7.64,3.14,12.14,0,4.1-.87,7.84-2.61,11.21-1.74,3.37-4.11,6.12-7.11,8.23l10.58,11.9h-11.51Zm-25.33-23.21c1.19,2.34,2.85,4.13,4.99,5.39,2.14,1.26,4.6,1.88,7.37,1.88s5.22-.63,7.34-1.88c2.12-1.26,3.77-3.05,4.96-5.39,1.19-2.34,1.79-5.05,1.79-8.13s-.6-5.79-1.79-8.1c-1.19-2.31-2.84-4.09-4.96-5.32-2.12-1.23-4.56-1.85-7.34-1.85s-5.24.62-7.37,1.85c-2.14,1.23-3.8,3.01-4.99,5.32-1.19,2.31-1.79,5.02-1.79,8.1s.6,5.8,1.79,8.13Z"/>
  <path class="cls-1" d="m326.15,177.98h0c-.91,1.42-.5,3.32.93,4.23l3.79,2.43c-.18.57.03,1.2.55,1.54l1.87,1.2-.49.77c-.21.33-.12.77.22.99l.42.27-1.98,3.09c-2.19,3.42-4.93,6.44-7.97,9.14-.23.21-.44.46-.61.74-.76,1.31-.41,3,.8,3.9,1.41,1.05,3.38.67,4.31-.79.15-.23.26-.48.34-.73,1.23-3.99,2.88-7.83,5.13-11.34l1.81-2.84.42.27c.33.21.77.12.99-.22l.49-.77,1.87,1.2c.52.34,1.19.26,1.63-.14l3.79,2.43c1.42.91,3.32.5,4.23-.93h0s-22.56-14.44-22.56-14.44Z"/>
  <path class="cls-4" d="m374.69,151.65l-18.96,29.69c-1.28.2-2.57.31-3.89.31-4.32,0-8.29-1.01-11.9-3.04-3.61-2.03-6.48-4.84-8.6-8.43-.02-.04-.05-.08-.07-.13l6.5-10.18c.2,2.31.76,4.39,1.71,6.24,1.19,2.34,2.85,4.13,4.99,5.39,2.14,1.26,4.6,1.89,7.37,1.89s5.23-.63,7.34-1.89c2.12-1.26,3.77-3.05,4.96-5.39,1.19-2.34,1.79-5.05,1.79-8.14s-.6-5.79-1.79-8.1c-1.19-2.31-2.84-4.09-4.96-5.32-2.11-1.23-4.56-1.85-7.34-1.85-1.16,0-2.26.11-3.31.32l5.47-8.57c3.53.28,6.78,1.27,9.78,2.96,3.59,2.03,6.44,4.84,8.53,8.43,1.06,1.82,1.86,3.76,2.38,5.82Z"/>
  <path class="cls-4" d="m371.51,133.38c1.55.2,3.04.8,4.04,2,1,1.21,1.16,2.59,1.13,4.39-.02-1.79.25-3.19,1.24-4.39,1-1.21,2.49-1.8,4.04-2-1.55-.2-3.04-.8-4.04-2-1-1.21-1.27-2.61-1.24-4.39.02,1.81-.14,3.19-1.13,4.39-1,1.21-2.49,1.8-4.04,2Z"/>
  <path class="cls-4" d="m364.61,130.46c.97.13,1.9.5,2.52,1.25.62.75.72,1.61.71,2.74-.01-1.11.15-1.99.78-2.74.62-.75,1.55-1.12,2.52-1.25-.97-.13-1.9-.5-2.52-1.25-.62-.75-.79-1.63-.78-2.74.01,1.13-.09,1.99-.71,2.74-.62.75-1.55,1.12-2.52,1.25Z"/>
  <path class="cls-4" d="m345.41,185.58c.67.09,1.31.34,1.74.87.43.52.5,1.12.49,1.9,0-.77.11-1.38.54-1.9.43-.52,1.07-.78,1.74-.87-.67-.09-1.31-.34-1.74-.87-.43-.52-.55-1.13-.54-1.9,0,.78-.06,1.38-.49,1.9-.43.52-1.07.78-1.74.87Z"/>
  <path class="cls-4" d="m369.86,124.62c.48.06.94.25,1.24.62.31.37.36.8.35,1.35,0-.55.08-.98.38-1.35.31-.37.77-.55,1.24-.62-.48-.06-.94-.25-1.24-.62-.31-.37-.39-.8-.38-1.35,0,.56-.04.98-.35,1.35-.31.37-.77.55-1.24.62Z"/>
  <path class="cls-4" d="m343.73,165.69c.48.06.94.25,1.24.62.31.37.36.8.35,1.35,0-.55.08-.98.38-1.35.31-.37.77-.55,1.24-.62-.48-.06-.94-.25-1.24-.62s-.39-.8-.38-1.35c0,.56-.04.98-.35,1.35-.31.37-.77.55-1.24.62Z"/>
  <path class="cls-4" d="m145.42,123.42c1.55.2,3.04.8,4.04,2,1,1.21,1.16,2.59,1.13,4.39-.02-1.79.25-3.19,1.24-4.39,1-1.21,2.49-1.8,4.04-2-1.55-.2-3.04-.8-4.04-2s-1.27-2.61-1.24-4.39c.02,1.81-.14,3.19-1.13,4.39s-2.49,1.8-4.04,2Z"/>
  <path class="cls-4" d="m155.43,118.71c1.13.15,2.23.58,2.95,1.47.73.88.85,1.89.83,3.21-.02-1.31.18-2.33.91-3.21.73-.88,1.82-1.32,2.95-1.47-1.13-.15-2.23-.58-2.95-1.47-.73-.88-.93-1.91-.91-3.21.02,1.32-.1,2.33-.83,3.21-.73.88-1.82,1.32-2.95,1.47Z"/>
  <path class="cls-4" d="m152.53,114c.42.06.82.22,1.09.54.27.33.31.7.31,1.19,0-.48.07-.86.34-1.19.27-.33.67-.49,1.09-.54-.42-.06-.82-.22-1.09-.54s-.34-.7-.34-1.19c0,.49-.04.86-.31,1.19-.27.33-.67.49-1.09.54Z"/>
  <path class="cls-2" d="m86.61,80.37s-1-4,1.15-8.04c2.15-4.05,4-4.6,5.6-4.2,1.6.4,2.7,3.4,1.5,4.6,0,0,2.8-.65,3.25-3.55.45-2.9-.75-7.89-4.6-10.94-3.85-3.05-8.34,1.7-13.09-.2-4.75-1.9-8.24-3-11.04-8.14-2.8-5.15-11.19-23.83-18.88-30.52,0,0-.25,4.9,3.7,12.44,0,0-11.49-8.19-15.99-28.67,0,0-1.5,18.18,11.69,29.67,0,0-16.98-9.69-28.57-27.18,0,0,9.59,20.28,21.08,27.68,0,0-18.68-8.89-28.17-22.48,0,0,7.89,15.29,20.28,23.78,0,0-20.68-9.89-28.47-21.38,0,0,7.79,17.58,32.87,28.28,0,0-18.18-6.29-26.58-14.19,0,0,8.39,11.29,25.28,16.09,0,0-14.89-2.7-26.38-9.09,0,0,10.69,10.99,26.48,13.49,0,0-9.69,1-14.29-.4,0,0,8.99,5.3,20.98,3.8,0,0-8.14,3.75-15.29,3.45,0,0,11.79,3.6,23.23-2.5,0,0-10.54,6.74-24.88,7.94,0,0,16.49,2.3,26.83-6.29,0,0-5.35,9.64-23.73,13.14,0,0,11.69,2,22.78-5.99,0,0-9.84,8.19-19.08,10.24,0,0,13.29-1.3,21.88-7.19,0,0-6.89,6.79-19.58,10.79,0,0,11.49-1.7,18.58-5.84,0,0-3.6,4.2-10.19,6.94,0,0,7.84-1.3,14.84-4.95,6.99-3.65,7.39,2.55,3.55,5.15-3.85,2.6-27.03-.95-37.12,21.73,0,0,13.24-11.84,25.68-13.04,0,0-13.29,5.54-18.03,13.99,0,0,9.54-6.34,20.18-8.69,0,0-8.59,4.2-14.14,9.59,0,0,9.19-5.84,14.59-6.84,0,0-12.99,7.04-13.39,18.83,0,0,4.55-9.14,14.94-14.54,0,0-3.3,4.3-4.15,9.54,0,0,2.95-5,6.64-6.69,0,0-2.25,3.7-.55,8.94,0,0,1.55-5.74,5.55-9.14,0,0-1,5.45-.3,9.14,0,0,3.05-2.5,5.05-8.09,2-5.6,1.7-10.49,8.19-15.19,0,0,2.75,3.9,7.54,3.55,4.8-.35,6.99-1.2,6.59,1.6-.16,1.15-.32,1.94-.34,2.45h0s-.28,3.25,2.51,5.12c0,0-2-1.9-1.72-4.34.12,0,.26-.03.42-.06,1.65-.3,1.47-.6,1.45-2.45-.03-1.85.33-1.97,1.2-2.37.87-.4,2.67.87,3.55.82.87-.05-1.5.85-1.35,1.72.15.87.77.3.77.3,0,0-.97,1.55,1.1,2.17,0,0-1.4-.4-.45-2.1,0,0,.67.72,1.42.12.75-.6.27-1.15,1.45-1.05,1.17.1,2.07,1.67,3.72,1.3,1.65-.37.82-.82,2.37.25,0,0-.3-1.85-3.52-2.4,0,0,1.22-.62,2.15-.62.92,0,1.9.42,2.25-.05.35-.47-.3-1.05.45-1.25.75-.2,1.85.32,1.9,1.25,0,0,.17-1.5-1.1-1.95-1.27-.45-2.45-.1-3.9.57,0,0,.1-.42-.1-.97,0,0,1.25-1.15,2.85-.87,0,0-1.07-1-3.35.1-2.27,1.1-2.4,1.27-3.92,1.75-1.52.47-1.57-.57-3.07-.25,0,0,1.12-.82.57-1.75,0,0,1.85-.42,2.6.77,0,0-.25-1.7-2.77-1.92-2.52-.22-3.27,1.75-4.92,1.55-1.65-.2-5.12-1.15-5.57-1.25-.45-.1-.32-2.45-.65-5"/>
  <text class="cls-5" transform="translate(7.42 196.84)"><tspan x="0" y="0">Cleaning and disinfecting services</tspan></text>
</svg>